# xmcd CD database file
#
# Track frame offsets:
#	150
#	18662
#	35087
#	48520
#	65657
#	77060
#	89847
#	104530
#	122525
#	142137
#	159310
#	178897
#
# Disc length: 2688 seconds
#
# Revision: 6
# Processed by: cddbd v1.5.1PL2 Copyright (c) Steve Scherf et al.
# Submitted via: CD2WAV32(JP) R3.22
#
DISCID=b00a7e0c
DTITLE=Filippa Giordano - Filippa Giordano
DYEAR=1999
DGENRE=Classical
TTITLE0=Norma - Casta Diva (Short Version)
TTITLE1=Samson Et Dalila, Op. 47 - S'apre Per Te Il Mio Cuor
TTITLE2=Tosca - Vissi D'arte
TTITLE3=Carmen - Habanera
TTITLE4=Gianni Schicchi - O Mio Babbino Caro
TTITLE5=Ave Maria
TTITLE6=La Traviata - Addio Del Passato
TTITLE7=Lost Boys Calling
TTITLE8=You Are The One (Sotto Le Stelle)
TTITLE9=Dissonanze (Mondo Trash)
TTITLE10=Maria (By The Sea)
TTITLE11=Norma - Casta Diva (Long Version)
EXTD=
EXTT0=
EXTT1=
EXTT2=
EXTT3=
EXTT4=
EXTT5=
EXTT6=
EXTT7=
EXTT8=
EXTT9=
EXTT10=
EXTT11=
PLAYORDER=
